<?xml version="1.0" standalone="no"?>
<!DOCTYPE svg PUBLIC "-//W3C//DTD SVG 20010904//EN"
 "http://www.w3.org/TR/2001/REC-SVG-20010904/DTD/svg10.dtd">
<svg version="1.0" xmlns="http://www.w3.org/2000/svg"
 width="500.000000pt" height="500.000000pt" viewBox="0 0 500.000000 500.000000"
 preserveAspectRatio="xMidYMid meet">

<g transform="translate(0.000000,500.000000) scale(0.100000,-0.100000)"
fill="#000000" stroke="none">
<path d="M1602 3888 c-7 -7 -12 -16 -12 -20 0 -5 -9 -27 -19 -51 -10 -23 -31
-76 -46 -117 -15 -41 -36 -97 -47 -125 -11 -27 -25 -68 -30 -90 -6 -22 -15
-45 -19 -51 -8 -9 -38 -91 -74 -199 -7 -22 -25 -71 -40 -110 -15 -38 -40 -108
-57 -155 -16 -47 -35 -94 -42 -105 -7 -11 -16 -36 -20 -55 l-6 -36 101 -66
c56 -37 105 -65 109 -63 7 5 33 67 69 170 10 28 23 66 30 85 7 19 27 73 43
120 17 47 34 89 39 94 5 6 9 18 9 27 0 19 47 129 55 129 5 0 69 -130 149 -305
56 -122 118 -251 142 -296 13 -26 24 -54 24 -62 0 -8 9 -26 20 -40 18 -22 20
-41 20 -169 l1 -143 71 -45 c40 -25 94 -60 121 -77 27 -18 51 -33 53 -33 2 0
4 405 4 900 l0 900 -125 0 -125 0 0 -325 c0 -204 -4 -325 -10 -325 -5 0 -28
39 -50 88 -50 109 -79 169 -120 254 -37 77 -36 101 6 196 13 30 24 67 24 83
l0 29 -118 0 c-78 0 -122 -4 -130 -12z"/>
<path d="M2300 2999 c0 -719 3 -900 13 -892 6 5 30 20 52 34 22 14 73 47 113
73 l72 48 0 334 c0 222 3 334 10 334 6 0 52 -13 102 -30 50 -16 101 -30 113
-30 12 0 44 -9 71 -19 27 -11 66 -22 87 -26 20 -3 37 -10 37 -15 0 -5 -21 -21
-47 -36 -27 -15 -56 -34 -65 -42 -9 -7 -31 -22 -50 -32 l-33 -17 -3 -129 c-1
-70 0 -134 2 -141 5 -12 60 19 136 75 14 10 48 31 75 46 28 16 59 36 70 46 11
9 52 35 90 58 171 103 210 131 209 149 -1 10 -15 54 -31 98 -27 73 -32 80 -64
87 -19 5 -68 17 -109 28 -41 10 -106 27 -143 36 -37 9 -70 21 -73 26 -3 4 -14
8 -26 8 -24 0 -198 53 -198 60 0 7 142 50 164 50 9 0 51 13 94 29 42 16 93 31
112 34 62 9 90 24 90 50 0 13 -4 27 -9 33 -5 5 -18 38 -30 74 -12 36 -31 85
-43 110 -11 25 -24 59 -29 75 -11 44 -45 136 -74 199 -14 30 -25 61 -25 70 0
42 -9 46 -101 46 l-89 0 0 -135 c0 -96 4 -144 14 -163 12 -24 66 -174 66 -185
0 -4 -15 -9 -150 -47 -41 -12 -85 -25 -98 -31 -54 -22 -52 -32 -52 276 l0 285
-125 0 -125 0 0 -901z"/>
<path d="M570 1540 l0 -440 23 0 c33 0 96 40 131 83 l31 39 5 176 5 176 209
-222 c207 -219 247 -252 306 -252 20 0 20 8 20 441 l0 442 -41 -6 c-53 -7
-107 -50 -136 -107 -21 -40 -23 -59 -23 -200 l-1 -155 -217 222 c-119 122
-227 227 -239 232 -12 6 -33 11 -47 11 l-26 0 0 -440z"/>
<path d="M1400 1616 c0 -233 4 -375 11 -393 22 -58 102 -123 154 -123 l25 0 0
370 c0 407 1 397 -62 457 -34 33 -75 53 -109 53 -18 0 -19 -11 -19 -364z"/>
<path d="M1690 1610 c0 -402 -1 -398 57 -452 29 -28 90 -58 118 -58 13 0 15
23 15 157 l0 157 143 -142 c147 -146 186 -172 255 -172 38 0 123 36 129 55 2
6 -87 100 -197 210 l-200 200 177 177 c160 160 175 178 162 194 -35 43 -142
58 -202 28 -18 -9 -85 -68 -149 -132 l-118 -117 0 57 c0 31 -5 69 -11 85 -22
59 -104 123 -159 123 -20 0 -20 -5 -20 -370z"/>
<path d="M2795 1967 c-121 -41 -227 -131 -281 -242 -27 -57 -29 -67 -29 -185
0 -122 1 -127 34 -192 43 -86 128 -168 218 -211 64 -30 75 -32 179 -32 107 0
112 1 185 37 93 46 168 122 212 215 30 64 32 74 32 183 0 109 -2 119 -32 183
-44 93 -119 169 -211 215 -68 33 -83 37 -171 39 -60 2 -111 -2 -136 -10z m199
-199 c55 -17 131 -91 145 -143 26 -96 8 -187 -50 -250 -111 -121 -314 -91
-390 56 -26 51 -26 159 0 214 50 109 172 159 295 123z"/>
<path d="M3330 1975 c0 -10 432 -870 437 -868 2 1 27 49 55 105 l50 103 55
-110 56 -110 218 435 c120 239 218 438 218 443 1 4 -33 7 -74 7 -79 0 -133
-18 -166 -56 -9 -11 -57 -100 -107 -199 l-89 -180 -52 103 c-28 56 -53 102
-56 102 -3 0 -27 -45 -55 -100 -28 -55 -53 -100 -56 -100 -3 0 -45 82 -94 183
-50 101 -98 191 -108 200 -33 30 -90 47 -162 47 -38 0 -70 -2 -70 -5z"/>
</g>
</svg>
